<svg width="29" height="40" viewBox="0 0 29 40" fill="none" xmlns="http://www.w3.org/2000/svg">
<path d="M14.5 40C13.6333 40 12.85 39.7917 12.15 39.375C11.45 38.9583 10.9 38.4 10.5 37.7C9.4 37.7 8.45833 37.3083 7.675 36.525C6.89167 35.7417 6.5 34.8 6.5 33.7V26.6C4.53333 25.3 2.95833 23.5833 1.775 21.45C0.591667 19.3167 0 17 0 14.5C0 10.4667 1.40833 7.04167 4.225 4.225C7.04167 1.40833 10.4667 0 14.5 0C18.5333 0 21.9583 1.40833 24.775 4.225C27.5917 7.04167 29 10.4667 29 14.5C29 17.0667 28.4083 19.4 27.225 21.5C26.0417 23.6 24.4667 25.3 22.5 26.6V33.7C22.5 34.8 22.1083 35.7417 21.325 36.525C20.5417 37.3083 19.6 37.7 18.5 37.7C18.1 38.4 17.55 38.9583 16.85 39.375C16.15 39.7917 15.3667 40 14.5 40ZM10.5 33.7H18.5V31.9H10.5V33.7ZM10.5 29.9H18.5V28H10.5V29.9ZM10.1 24H13V18.6L8.6 14.2L10.7 12.1L14.5 15.9L18.3 12.1L20.4 14.2L16 18.6V24H18.9C20.7 23.1333 22.1667 21.8583 23.3 20.175C24.4333 18.4917 25 16.6 25 14.5C25 11.5667 23.9833 9.08333 21.95 7.05C19.9167 5.01667 17.4333 4 14.5 4C11.5667 4 9.08333 5.01667 7.05 7.05C5.01667 9.08333 4 11.5667 4 14.5C4 16.6 4.56667 18.4917 5.7 20.175C6.83333 21.8583 8.3 23.1333 10.1 24Z" fill="#284703"/>
</svg>
